<svg alt="My Dimdim Logo" viewBox="0 0 48 48" fill="white" xmlns="http://www.w3.org/2000/svg" width="80"><path d="M41.436 23.4994L40.4484 23.6563L40.4487 23.6584L41.436 23.4994ZM34.627 15.4964L33.6272 15.5139C33.6345 15.9326 33.902 16.3025 34.2974 16.4405L34.627 15.4964ZM36.242 8.19242L37.1798 8.53955C37.3086 8.19161 37.2342 7.80097 36.9865 7.52477C36.7388 7.24856 36.3585 7.1322 35.9987 7.22248L36.242 8.19242ZM29.215 13.8924L28.9775 14.8638C29.4447 14.9781 29.9271 14.7435 30.1257 14.3054L29.215 13.8924ZM10.303 17.4274L9.68877 16.6383L9.68863 16.6384L10.303 17.4274ZM5.65601 28.9764L6.65513 28.9346L6.65513 28.9345L5.65601 28.9764ZM10.763 37.7664L10.1383 38.5473L10.1433 38.5512L10.763 37.7664ZM11.366 39.3984L12.3171 39.7072L12.3176 39.7058L11.366 39.3984ZM10.463 41.7824L9.54023 41.3971C9.53623 41.4067 9.53238 41.4163 9.52869 41.426L10.463 41.7824ZM11.459 44.0004L11.1031 44.935L11.1055 44.9359L11.459 44.0004ZM14.677 45.2164L15.0334 44.2821L15.0305 44.281L14.677 45.2164ZM16.895 44.2204L15.9614 43.8621L15.9602 43.8653L16.895 44.2204ZM17.671 42.1754L16.7356 41.8217L16.7344 41.825L17.671 42.1754ZM28.875 42.3654L29.8233 42.048L29.8214 42.0423L28.875 42.3654ZM29.578 44.2204L30.5139 43.868C30.5091 43.8553 30.504 43.8427 30.4987 43.8301L29.578 44.2204ZM31.797 45.2164L31.4431 44.2811L31.4416 44.2817L31.797 45.2164ZM35.011 44.0004L35.3649 44.9357L35.3658 44.9354L35.011 44.0004ZM36.01 41.7824L35.0746 42.136L35.076 42.1398L36.01 41.7824ZM35.494 40.4174L36.4294 40.0638C36.4098 40.0118 36.3858 39.9616 36.3578 39.9135L35.494 40.4174ZM36.094 38.9064L36.5713 39.7852L36.572 39.7848L36.094 38.9064ZM41.122 33.5494L42.0237 33.9817L42.0251 33.9789L41.122 33.5494ZM5.60281 24.3032C6.14116 24.4265 6.67751 24.09 6.80077 23.5516C6.92403 23.0133 6.58753 22.4769 6.04918 22.3537L5.60281 24.3032ZM4.35922 16.6636C4.8663 16.4448 5.09997 15.8563 4.88115 15.3492C4.66232 14.8421 4.07385 14.6084 3.56677 14.8273L4.35922 16.6636ZM25 10.2944C25 6.15185 21.639 2.79444 17.5 2.79444V4.79444C20.535 4.79444 23 7.25702 23 10.2944H25ZM17.5 2.79444C13.3544 2.79444 9.99999 6.15245 9.99999 10.2944H12C12 7.25642 14.4596 4.79444 17.5 4.79444V2.79444ZM9.99999 10.2944C9.99999 11.4557 10.2656 12.5534 10.7431 13.5327L12.5408 12.6562C12.1943 11.9455 12 11.1472 12 10.2944H9.99999ZM44.375 23.2614H42.748V25.2614H44.375V23.2614ZM42.748 23.2614C42.4661 23.2614 42.3606 23.1985 42.3507 23.1919C42.3489 23.1907 42.4063 23.235 42.4233 23.3404L40.4487 23.6584C40.6195 24.7191 41.6317 25.2614 42.748 25.2614V23.2614ZM42.4236 23.3425C41.9377 20.2836 39.9393 16.292 34.9566 14.5523L34.2974 16.4405C38.4228 17.8809 40.0483 21.1372 40.4484 23.6563L42.4236 23.3425ZM35.6269 15.479C35.5863 13.1539 36.0906 11.4822 37.1798 8.53955L35.3042 7.84529C34.2014 10.8246 33.5797 12.7929 33.6272 15.5139L35.6269 15.479ZM35.9987 7.22248C33.2658 7.9081 30.1365 9.43877 28.3043 13.4794L30.1257 14.3054C31.6255 10.9981 34.1242 9.75473 36.4854 9.16236L35.9987 7.22248ZM29.4525 12.921C27.4967 12.4428 25.4109 12.1854 23.237 12.1854V14.1854C25.2531 14.1854 27.1793 14.4241 28.9775 14.8638L29.4525 12.921ZM23.237 12.1854C17.5262 12.1854 13.1737 13.9257 9.68877 16.6383L10.9172 18.2165C14.0563 15.7732 17.9778 14.1854 23.237 14.1854V12.1854ZM9.68863 16.6384C6.40381 19.1962 4.42256 23.428 4.65689 29.0183L6.65513 28.9345C6.44346 23.8848 8.22021 20.3166 10.9174 18.2164L9.68863 16.6384ZM4.65688 29.0182C4.8433 33.4713 7.92223 36.7746 10.1384 38.5473L11.3877 36.9855C9.31579 35.3282 6.80471 32.5076 6.65513 28.9346L4.65688 29.0182ZM10.1433 38.5512C10.259 38.6426 10.2996 38.6696 10.3639 38.7275C10.4145 38.773 10.4357 38.8013 10.4446 38.8162C10.45 38.8251 10.4537 38.8325 10.4556 38.8524C10.4579 38.8761 10.4601 38.9497 10.4144 39.0911L12.3176 39.7058C12.5586 38.9597 12.4738 38.3086 12.1577 37.7839C11.8881 37.3366 11.4699 37.0504 11.3827 36.9816L10.1433 38.5512ZM10.4149 39.0897C10.263 39.5576 10.0462 40.131 9.8627 40.5977C9.77186 40.8288 9.69087 41.0296 9.63267 41.1723C9.60359 41.2437 9.58026 41.3004 9.5643 41.339C9.55632 41.3583 9.55019 41.3731 9.54611 41.383C9.54407 41.3879 9.54254 41.3915 9.54155 41.3939C9.54106 41.3951 9.5407 41.396 9.54048 41.3965C9.54037 41.3968 9.54029 41.3969 9.54025 41.397C9.54023 41.3971 9.54021 41.3971 9.54021 41.3971C9.54021 41.3971 9.54021 41.3971 9.54021 41.3971C9.54022 41.3971 9.54023 41.3971 10.463 41.7824C11.3858 42.1677 11.3858 42.1677 11.3858 42.1677C11.3858 42.1677 11.3858 42.1676 11.3859 42.1676C11.3859 42.1675 11.3859 42.1674 11.386 42.1673C11.3861 42.167 11.3862 42.1667 11.3864 42.1663C11.3867 42.1655 11.3872 42.1644 11.3878 42.1629C11.389 42.1599 11.3908 42.1557 11.3931 42.1502C11.3977 42.1392 11.4043 42.1232 11.4128 42.1025C11.4298 42.0613 11.4543 42.0018 11.4847 41.9273C11.5453 41.7786 11.6295 41.5699 11.7241 41.3294C11.9114 40.8529 12.1461 40.2342 12.3171 39.7072L10.4149 39.0897ZM9.52869 41.426C8.99282 42.8306 9.70422 44.4023 11.1031 44.935L11.8149 43.0659C11.4438 42.9246 11.2572 42.5062 11.3973 42.1389L9.52869 41.426ZM11.1055 44.9359L14.3235 46.1519L15.0305 44.281L11.8125 43.065L11.1055 44.9359ZM14.3206 46.1507C15.7239 46.6861 17.2968 45.9785 17.8298 44.5756L15.9602 43.8653C15.8192 44.2363 15.4021 44.4227 15.0334 44.2821L14.3206 46.1507ZM16.895 44.2204C17.8286 44.5788 17.8286 44.5788 17.8286 44.5788C17.8286 44.5787 17.8286 44.5787 17.8286 44.5787C17.8286 44.5787 17.8287 44.5786 17.8287 44.5785C17.8287 44.5784 17.8288 44.5782 17.8289 44.5779C17.8291 44.5774 17.8295 44.5765 17.8299 44.5754C17.8307 44.5733 17.8319 44.5701 17.8336 44.5658C17.8368 44.5573 17.8416 44.5448 17.8478 44.5286C17.8603 44.4961 17.8784 44.4488 17.9013 44.3891C17.947 44.2696 18.0115 44.1007 18.087 43.9027C18.2378 43.5069 18.4326 42.9936 18.6076 42.5259L16.7344 41.825C16.5614 42.2873 16.3682 42.7964 16.218 43.1906C16.143 43.3876 16.0788 43.5556 16.0334 43.6743C16.0107 43.7336 15.9926 43.7806 15.9803 43.8128C15.9742 43.8288 15.9694 43.8412 15.9662 43.8495C15.9646 43.8537 15.9634 43.8568 15.9626 43.8589C15.9622 43.86 15.9619 43.8608 15.9617 43.8613C15.9616 43.8616 15.9615 43.8618 15.9615 43.8619C15.9615 43.8619 15.9615 43.862 15.9614 43.862C15.9614 43.862 15.9614 43.862 15.9614 43.862C15.9614 43.8621 15.9614 43.8621 16.895 44.2204ZM18.6064 42.5291C18.7696 42.0974 18.8165 42.1796 18.676 42.2585C18.5287 42.3411 18.4413 42.267 18.8347 42.3387C19.5267 42.4648 20.8712 42.8454 23.237 42.8454V40.8454C21.1018 40.8454 19.9938 40.517 19.1933 40.3711C18.8405 40.3068 18.2468 40.206 17.6972 40.5143C17.1544 40.819 16.9029 41.3794 16.7357 41.8217L18.6064 42.5291ZM23.237 42.8454C25.6056 42.8454 27.0476 42.6076 27.6905 42.5664C28.07 42.542 28.0264 42.5971 27.9169 42.5289C27.7871 42.4481 27.8164 42.3599 27.9287 42.6886L29.8214 42.0423C29.6891 41.6549 29.4761 41.1437 28.9741 40.8312C28.4924 40.5312 27.9467 40.5458 27.5625 40.5705C26.6779 40.6272 25.5454 40.8454 23.237 40.8454V42.8454ZM27.9267 42.6829C28.0908 43.1729 28.2733 43.6542 28.4135 44.01C28.4838 44.1887 28.5442 44.3375 28.5873 44.4422C28.6088 44.4946 28.626 44.536 28.638 44.5646C28.6439 44.579 28.6486 44.5901 28.6519 44.5979C28.6535 44.6017 28.6548 44.6048 28.6557 44.6069C28.6562 44.608 28.6565 44.6088 28.6568 44.6095C28.6569 44.6098 28.657 44.6101 28.6571 44.6103C28.6572 44.6104 28.6572 44.6105 28.6572 44.6105C28.6573 44.6106 28.6573 44.6106 28.6573 44.6106C28.6573 44.6107 28.6573 44.6107 29.578 44.2204C30.4987 43.8301 30.4987 43.8302 30.4987 43.8302C30.4987 43.8302 30.4987 43.8302 30.4987 43.8302C30.4987 43.8302 30.4988 43.8302 30.4987 43.8302C30.4987 43.8302 30.4987 43.8301 30.4987 43.83C30.4985 43.8298 30.4983 43.8293 30.498 43.8286C30.4975 43.8272 30.4965 43.8249 30.4952 43.8218C30.4926 43.8157 30.4886 43.8061 30.4833 43.7935C30.4727 43.7682 30.457 43.7304 30.4371 43.6819C30.3972 43.5849 30.3406 43.4452 30.2743 43.2771C30.1412 42.9391 29.9722 42.4929 29.8233 42.048L27.9267 42.6829ZM28.6422 44.5728C29.1724 45.981 30.7492 46.6847 32.1524 46.1511L31.4416 44.2817C31.0669 44.4242 30.6516 44.2338 30.5139 43.868L28.6422 44.5728ZM32.1509 46.1517L35.3649 44.9357L34.6571 43.0651L31.4431 44.2811L32.1509 46.1517ZM35.3658 44.9354C36.767 44.4036 37.4823 42.832 36.944 41.4251L35.076 42.1398C35.2157 42.5048 35.031 42.9232 34.6562 43.0655L35.3658 44.9354ZM36.9454 41.4288L36.4294 40.0638L34.5586 40.771L35.0746 42.136L36.9454 41.4288ZM35.494 40.4174C36.3578 39.9135 36.3581 39.9141 36.3584 39.9146C36.3585 39.9147 36.3588 39.9153 36.359 39.9156C36.3594 39.9163 36.3597 39.9169 36.3601 39.9176C36.3609 39.9189 36.3616 39.9201 36.3623 39.9213C36.3637 39.9238 36.365 39.926 36.3661 39.9282C36.3685 39.9324 36.3705 39.936 36.3721 39.9391C36.3753 39.9452 36.3772 39.9492 36.3783 39.9513C36.3801 39.9552 36.3791 39.9535 36.3772 39.948C36.3753 39.9423 36.3736 39.9359 36.3726 39.9299C36.3715 39.9239 36.3717 39.9214 36.3717 39.9221C36.3714 39.9299 36.3674 39.9401 36.3679 39.9393C36.3702 39.9357 36.4106 39.8724 36.5713 39.7852L35.6167 38.0277C34.7653 38.4901 34.3939 39.1774 34.3726 39.86C34.3633 40.1604 34.4236 40.4134 34.4819 40.5865C34.5117 40.6749 34.5429 40.7483 34.569 40.8038C34.5822 40.8317 34.5943 40.8557 34.6047 40.8752C34.6099 40.885 34.6147 40.8938 34.6189 40.9015C34.6211 40.9053 34.6231 40.9089 34.625 40.9122C34.6259 40.9138 34.6268 40.9154 34.6277 40.9169C34.6281 40.9177 34.6286 40.9184 34.629 40.9192C34.6292 40.9195 34.6295 40.9201 34.6296 40.9202C34.6299 40.9208 34.6302 40.9213 35.494 40.4174ZM36.572 39.7848C39.0102 38.458 40.8427 36.445 42.0237 33.9817L40.2203 33.1171C39.2093 35.2258 37.6619 36.9148 35.616 38.028L36.572 39.7848ZM42.0251 33.9789C42.1427 33.7316 42.2179 33.6052 42.308 33.5218C42.361 33.4728 42.4634 33.3934 42.748 33.3934V31.3934C41.9836 31.3934 41.3895 31.647 40.95 32.0535C40.5477 32.4256 40.3344 32.8772 40.2189 33.12L42.0251 33.9789ZM42.748 33.3934H44.375V31.3934H42.748V33.3934ZM44.375 33.3934C45.8229 33.3934 47 32.2171 47 30.7694H45C45 31.1117 44.7191 31.3934 44.375 31.3934V33.3934ZM47 30.7694V25.8904H45V30.7694H47ZM47 25.8904C47 24.4439 45.8261 23.2614 44.375 23.2614V25.2614C44.7159 25.2614 45 25.5429 45 25.8904H47ZM5.82599 23.3284C6.04918 22.3537 6.04957 22.3537 6.04995 22.3538C6.05006 22.3539 6.05042 22.3539 6.05064 22.354C6.05107 22.3541 6.05145 22.3542 6.05177 22.3542C6.0524 22.3544 6.05282 22.3545 6.05302 22.3545C6.05341 22.3546 6.05294 22.3545 6.05161 22.3542C6.04896 22.3536 6.04294 22.3521 6.03378 22.3497C6.01543 22.3449 5.98461 22.3367 5.94312 22.3245C5.85991 22.3001 5.73513 22.2604 5.58282 22.2026C5.27511 22.0859 4.8717 21.9017 4.47528 21.6321C3.6898 21.098 2.99999 20.2884 2.99999 19.0014H0.999992C0.999992 21.1655 2.22318 22.5193 3.35071 23.286C3.91078 23.6668 4.46387 23.9172 4.87354 24.0726C5.07992 24.1509 5.25404 24.2066 5.38007 24.2436C5.4432 24.2621 5.49458 24.276 5.53227 24.2858C5.55113 24.2907 5.56659 24.2945 5.57842 24.2974C5.58434 24.2989 5.58935 24.3001 5.59342 24.301C5.59546 24.3015 5.59726 24.3019 5.59883 24.3023C5.59961 24.3025 5.60033 24.3026 5.601 24.3028C5.60133 24.3029 5.60178 24.303 5.60195 24.303C5.60238 24.3031 5.60281 24.3032 5.82599 23.3284ZM2.99999 19.0014C2.99999 17.9016 3.548 17.0137 4.35922 16.6636L3.56677 14.8273C1.87999 15.5552 0.999992 17.2712 0.999992 19.0014H2.99999Z" class="fill-gray-900"></path><path d="M36.5236 27.5581C35.3684 27.5581 34.4335 26.5677 34.4335 25.3462C34.4335 24.127 35.3684 23.1366 36.5236 23.1366C37.6756 23.1366 38.6073 24.127 38.6073 25.3462C38.6084 26.5666 37.6756 27.5581 36.5236 27.5581Z" class="fill-gray-900"></path></svg>