<svg xmlns="http://www.w3.org/2000/svg" version="1.1" xmlns:xlink="http://www.w3.org/1999/xlink" xmlns:svgjs="http://svgjs.com/svgjs" width="1000" height="1000"><rect width="1000" height="1000" rx="500" ry="500" fill="#555555"></rect><g transform="matrix(2.0833333333333335,0,0,2.0833333333333335,-5.684341886080802e-14,-5.684341886080802e-14)"><svg xmlns="http://www.w3.org/2000/svg" version="1.1" xmlns:xlink="http://www.w3.org/1999/xlink" xmlns:svgjs="http://svgjs.com/svgjs" width="480" height="480"><svg width="480" height="480" viewBox="0 0 480 480" fill="none" xmlns="http://www.w3.org/2000/svg">
<rect width="480" height="480" rx="70.3297" fill="#5B31E3"></rect>
<path d="M285.099 134.587C285.099 129.793 281.388 119.56 270.113 119.56C263.545 119.56 257.49 123.829 255.601 130.466L195.469 341.235C195.075 342.616 194.886 344.007 194.886 345.376C194.478 350.23 198.659 360.44 209.934 360.44C216.473 360.44 222.491 356.131 224.38 349.515L284.512 138.746C284.911 137.349 285.099 135.956 285.099 134.587ZM172.352 186.884C172.352 178.284 165.328 171.829 157.319 171.829C153.472 171.829 149.624 173.3 146.692 176.24L94.0768 228.933C91.1384 232.284 89.6703 236.142 89.6703 239.577C89.6703 243.011 91.1384 247.716 94.0745 250.633L146.69 303.325C149.614 306.289 153.466 307.324 157.319 307.324C165.328 307.324 172.352 300.864 172.352 292.269C172.352 288.417 170.884 284.563 167.947 281.622L125.961 239.577L167.95 197.526C170.895 194.976 172.352 191.166 172.352 186.884ZM390.33 239.577C390.33 235.724 388.862 231.87 385.925 228.93L333.31 176.238C330.386 173.711 326.533 171.829 322.681 171.829C314.672 171.829 307.648 178.289 307.648 186.884C307.648 190.736 309.116 194.591 312.052 197.531L354.041 239.581L312.052 281.632C309.105 284.977 307.648 288.834 307.648 292.269C307.648 300.869 314.672 307.324 322.681 307.324C326.528 307.324 330.376 305.854 333.308 302.913L385.923 250.22C388.873 247.716 390.33 243.858 390.33 239.577Z" fill="white"></path>
</svg></svg></g></svg>