<svg width="240" height="129" viewBox="0 0 240 129" fill="none" xmlns="http://www.w3.org/2000/svg">
<path d="M0 91.5701V19.2399H22.9657V26.1105C22.9657 26.1105 29.4897 17.967 41.5305 17.967C55.6574 17.967 61.292 27.7322 61.292 27.7322C61.292 27.7322 68.3173 17.967 84.2185 17.967C108.843 17.967 108.457 42.9402 108.457 42.9402V91.5723H85.5307V50.772C85.5307 50.772 86.3416 39.154 75.9595 39.154C65.5774 39.154 65.8085 50.3077 65.8085 50.3077V91.568H42.8035V51.0815C42.8035 51.0815 43.5751 39.1932 33.193 39.1932C22.811 39.1932 23.042 50.1944 23.042 50.1944V91.5701H0Z" fill="white"/>
<path d="M99.9279 19.277C103.243 21.4807 105.996 23.6473 107.936 25.9535C111.382 30.0536 112.675 34.4719 112.934 39.4243H121.078C121.078 39.4243 121.078 62.0412 121.078 83.2327C121.078 107.818 147.479 107.28 159.984 99.2886V79.7582C158.992 80.2878 153.724 83.0735 149.521 83.3286C147.503 83.4506 144.081 83.7732 144.081 78.0994V39.4265H160.215V19.277H144.044V0.790619L121.039 9.47469V19.2792H99.9279V19.277Z" fill="white"/>
<path d="M216.993 15.1485V21.6725C201.515 6.19419 164.23 13.0277 164.23 48.2653C164.23 81.8834 201.63 89.9877 217.148 73.4696C217.148 84.741 210.042 88.7169 200.821 89.179C192.959 89.5713 183.608 87.481 175.271 82.2322L167.127 100.102C187.261 110.948 211.513 110.022 224.522 103.036C234.908 97.4576 240 85.8592 240 70.6904C240 55.5217 240 15.1485 240 15.1485H216.993ZM202.223 62.0957C192.87 62.0957 187.261 55.7069 187.261 47.8272C187.261 38.912 193.903 33.5586 202.223 33.5586C210.543 33.5586 217.289 39.1431 217.289 47.8272C217.287 55.7069 211.19 62.0957 202.223 62.0957Z" fill="white"/>
<path d="M13.4185 115.56C13.4185 114.512 13.1722 113.605 12.6817 112.842C12.1913 112.079 11.4872 111.493 10.5674 111.085C9.64752 110.678 8.56855 110.473 7.32828 110.473H1.44299V124.776H4.10009V120.65H7.32828C8.56855 120.65 9.64752 120.445 10.5674 120.038C11.4872 119.63 12.1913 119.039 12.6817 118.27C13.1743 117.5 13.4185 116.598 13.4185 115.56ZM9.84151 117.666C9.24209 118.156 8.36365 118.401 7.20621 118.401H4.10009V112.72H7.20621C8.36365 112.72 9.24209 112.964 9.84151 113.455C10.4409 113.945 10.7417 114.647 10.7417 115.56C10.7417 116.474 10.4409 117.176 9.84151 117.666Z" fill="white"/>
<path d="M18.9572 110.473L12.5204 124.776H15.2582L16.6685 121.465H23.8202L25.2501 124.776H28.0292L21.5729 110.473H18.9572ZM17.5665 119.384L20.2432 113.13L22.9396 119.384H17.5665Z" fill="white"/>
<path d="M40.6281 118.34C41.1534 117.564 41.415 116.637 41.415 115.56C41.415 114.512 41.1687 113.605 40.6783 112.842C40.1878 112.079 39.4838 111.493 38.5639 111.085C37.6441 110.678 36.5651 110.473 35.3248 110.473H29.4395V124.776H32.0966V120.609H35.3248C35.5711 120.609 35.7542 120.602 35.8763 120.589L38.7993 124.778H41.6591L38.3699 120.077C39.3508 119.695 40.1028 119.118 40.6281 118.34ZM37.8381 117.677C37.2386 118.174 36.3602 118.422 35.2028 118.422H32.0966V112.722H35.2028C36.3602 112.722 37.2386 112.966 37.8381 113.457C38.4375 113.947 38.7383 114.649 38.7383 115.563C38.7361 116.474 38.4375 117.18 37.8381 117.677Z" fill="white"/>
<path d="M42.3327 112.72H47.0736V124.776H49.7307V112.72H54.4716V110.473H42.3327V112.72Z" fill="white"/>
<path d="M59.5395 110.473H56.8824V124.776H59.5395V110.473Z" fill="white"/>
<path d="M67.5283 113.241C68.3042 112.812 69.1827 112.598 70.1636 112.598C71.6763 112.598 72.9493 113.156 73.9846 114.274L75.7001 112.659C75.0331 111.883 74.2157 111.29 73.2479 110.88C72.2801 110.473 71.212 110.268 70.0393 110.268C68.5942 110.268 67.2907 110.584 66.1267 111.218C64.9627 111.853 64.045 112.727 63.378 113.845C62.711 114.963 62.3775 116.223 62.3775 117.625C62.3775 119.028 62.7067 120.288 63.3693 121.404C64.0298 122.522 64.9431 123.396 66.1071 124.031C67.2711 124.665 68.5767 124.981 70.0197 124.981C71.1902 124.981 72.2648 124.776 73.2392 124.369C74.2135 123.959 75.0331 123.368 75.7023 122.59L73.9868 120.955C72.9514 122.086 71.6785 122.651 70.1657 122.651C69.1849 122.651 68.3064 122.437 67.5304 122.008C66.7545 121.579 66.1485 120.984 65.7125 120.221C65.2766 119.458 65.0586 118.592 65.0586 117.625C65.0586 116.657 65.2766 115.794 65.7125 115.028C66.1463 114.268 66.7523 113.671 67.5283 113.241Z" fill="white"/>
<path d="M80.914 110.473H78.2569V124.776H80.914V110.473Z" fill="white"/>
<path d="M96.0131 112.844C95.5226 112.081 94.8186 111.495 93.8987 111.088C92.9789 110.68 91.8999 110.475 90.6596 110.475H84.7743V124.778H87.4314V120.65H90.6596C91.8999 120.65 92.9789 120.445 93.8987 120.038C94.8186 119.63 95.5226 119.039 96.0131 118.27C96.5035 117.5 96.7498 116.598 96.7498 115.563C96.7498 114.512 96.5035 113.607 96.0131 112.844ZM93.1729 117.666C92.5734 118.156 91.695 118.401 90.5376 118.401H87.4314V112.72H90.5376C91.695 112.72 92.5734 112.964 93.1729 113.455C93.7723 113.945 94.0731 114.647 94.0731 115.56C94.0731 116.474 93.7723 117.176 93.1729 117.666Z" fill="white"/>
<path d="M102.696 110.473L96.2594 124.776H98.9971L100.407 121.465H107.559L108.989 124.776H111.768L105.312 110.473H102.696ZM101.305 119.384L103.982 113.13L106.679 119.384H101.305Z" fill="white"/>
<path d="M117.512 113.241C118.288 112.812 119.166 112.598 120.147 112.598C121.66 112.598 122.933 113.156 123.968 114.274L125.684 112.659C125.017 111.883 124.199 111.29 123.231 110.88C122.264 110.473 121.196 110.268 120.023 110.268C118.578 110.268 117.274 110.584 116.11 111.218C114.946 111.853 114.029 112.727 113.362 113.845C112.695 114.963 112.361 116.223 112.361 117.625C112.361 119.028 112.69 120.288 113.353 121.404C114.013 122.522 114.927 123.396 116.091 124.031C116.806 124.419 117.573 124.687 118.392 124.837L116.705 127.309L118.892 128.209L120.254 124.975C121.329 124.948 122.318 124.746 123.223 124.366C124.197 123.957 125.017 123.366 125.686 122.588L123.97 120.953C122.935 122.084 121.662 122.649 120.149 122.649C119.168 122.649 118.29 122.435 117.514 122.006C116.738 121.576 116.132 120.981 115.696 120.218C115.26 119.456 115.042 118.59 115.042 117.622C115.042 116.655 115.26 115.791 115.696 115.026C116.128 114.268 116.734 113.671 117.512 113.241Z" fill="white"/>
<path d="M132.602 108.287C132.785 108.069 133.021 107.96 133.306 107.96C133.441 107.96 133.583 108.003 133.725 108.093C133.869 108.182 134.047 108.315 134.265 108.491C134.634 108.764 134.943 108.969 135.196 109.104C135.449 109.241 135.745 109.309 136.085 109.309C136.739 109.309 137.265 109.065 137.659 108.574C138.054 108.084 138.265 107.436 138.293 106.632H136.925C136.911 107.001 136.811 107.286 136.628 107.491C136.445 107.696 136.21 107.798 135.924 107.798C135.789 107.798 135.647 107.755 135.506 107.665C135.362 107.576 135.181 107.445 134.965 107.266C134.597 106.994 134.287 106.789 134.034 106.654C133.781 106.519 133.485 106.449 133.145 106.449C132.491 106.449 131.963 106.698 131.56 107.195C131.159 107.691 130.95 108.356 130.937 109.187H132.306C132.319 108.805 132.417 108.505 132.602 108.287Z" fill="white"/>
<path d="M138.559 111.218C137.387 110.584 136.072 110.268 134.616 110.268C133.158 110.268 131.844 110.584 130.673 111.218C129.5 111.853 128.583 112.731 127.914 113.854C127.247 114.978 126.913 116.234 126.913 117.625C126.913 119.013 127.247 120.271 127.914 121.396C128.581 122.52 129.5 123.399 130.673 124.031C131.844 124.665 133.158 124.981 134.616 124.981C136.074 124.981 137.389 124.665 138.559 124.031C139.73 123.396 140.65 122.522 141.319 121.404C141.986 120.288 142.319 119.026 142.319 117.625C142.319 116.221 141.986 114.961 141.319 113.845C140.65 112.729 139.73 111.853 138.559 111.218ZM138.987 120.21C138.551 120.979 137.951 121.579 137.188 122.008C136.425 122.437 135.567 122.651 134.614 122.651C133.659 122.651 132.803 122.437 132.04 122.008C131.277 121.579 130.677 120.979 130.241 120.21C129.806 119.44 129.588 118.579 129.588 117.625C129.588 116.672 129.806 115.809 130.241 115.039C130.677 114.27 131.277 113.671 132.04 113.241C132.803 112.812 133.661 112.598 134.614 112.598C135.567 112.598 136.425 112.812 137.188 113.241C137.951 113.671 138.551 114.27 138.987 115.039C139.423 115.809 139.641 116.67 139.641 117.625C139.641 118.579 139.423 119.44 138.987 120.21Z" fill="white"/>
<path d="M147.795 118.605H154.702V116.419H147.795V112.701H155.581V110.473H145.138V124.776H155.866V122.551H147.795V118.605Z" fill="white"/>
<path d="M168.321 118.525C167.838 117.98 167.256 117.574 166.573 117.308C165.891 117.043 165.021 116.788 163.958 116.541C163.182 116.352 162.567 116.182 162.118 116.031C161.669 115.881 161.296 115.678 161.004 115.419C160.712 115.159 160.564 114.826 160.564 114.418C160.564 113.832 160.819 113.363 161.331 113.008C161.841 112.655 162.621 112.476 163.67 112.476C164.311 112.476 164.971 112.572 165.651 112.762C166.331 112.953 166.985 113.232 167.613 113.599L168.45 111.534C167.838 111.125 167.107 110.813 166.264 110.595C165.418 110.377 164.561 110.268 163.69 110.268C162.436 110.268 161.377 110.46 160.511 110.841C159.646 111.223 158.999 111.737 158.569 112.384C158.14 113.032 157.926 113.751 157.926 114.54C157.926 115.48 158.168 116.225 158.652 116.779C159.136 117.33 159.714 117.736 160.389 117.995C161.063 118.254 161.946 118.514 163.036 118.771C163.812 118.963 164.424 119.133 164.875 119.281C165.324 119.432 165.695 119.639 165.989 119.905C166.281 120.17 166.429 120.508 166.429 120.916C166.429 121.474 166.168 121.925 165.643 122.265C165.117 122.605 164.324 122.775 163.262 122.775C162.404 122.775 161.549 122.629 160.697 122.335C159.844 122.043 159.127 121.664 158.541 121.202L157.621 123.266C158.221 123.784 159.034 124.199 160.062 124.513C161.091 124.826 162.157 124.983 163.26 124.983C164.513 124.983 165.575 124.792 166.447 124.412C167.319 124.031 167.968 123.521 168.398 122.88C168.827 122.239 169.041 121.524 169.041 120.735C169.047 119.804 168.805 119.07 168.321 118.525Z" fill="white"/>
</svg>
